<mxfile host="app.diagrams.net" modified="2023-11-24T04:04:51.207Z" agent="Mozilla/5.0 (X11; Linux x86_64) AppleWebKit/537.36 (KHTML, like Gecko) Chrome/119.0.0.0 Safari/537.36" etag="KJHYUGDjO73I17i0Ox5N" version="22.1.3" type="device">
  <diagram name="Page-1" id="wcdQVWhFaCaktpmhSWkN">
    <mxGraphModel dx="989" dy="550" grid="1" gridSize="10" guides="1" tooltips="1" connect="1" arrows="1" fold="1" page="1" pageScale="1" pageWidth="850" pageHeight="1100" math="0" shadow="0">
      <root>
        <mxCell id="0" />
        <mxCell id="1" parent="0" />
        <mxCell id="S_xk8UEMZ3fWhJvyFJjy-2" value="Contract I" style="rounded=1;whiteSpace=wrap;html=1;fontStyle=1;fillColor=#f5f5f5;fontColor=#333333;strokeColor=#666666;" vertex="1" parent="1">
          <mxGeometry x="60" y="160" width="120" height="40" as="geometry" />
        </mxCell>
        <mxCell id="S_xk8UEMZ3fWhJvyFJjy-3" value="Slave" style="rounded=1;whiteSpace=wrap;html=1;fontStyle=0;dashed=1;dashPattern=1 1;" vertex="1" parent="1">
          <mxGeometry x="60" y="210" width="120" height="40" as="geometry" />
        </mxCell>
        <mxCell id="S_xk8UEMZ3fWhJvyFJjy-4" value="Slave" style="rounded=1;whiteSpace=wrap;html=1;fontStyle=0;dashed=1;dashPattern=1 1;" vertex="1" parent="1">
          <mxGeometry x="60" y="260" width="120" height="40" as="geometry" />
        </mxCell>
        <mxCell id="S_xk8UEMZ3fWhJvyFJjy-5" value="Slave" style="rounded=1;whiteSpace=wrap;html=1;fontStyle=0;dashed=1;dashPattern=1 1;" vertex="1" parent="1">
          <mxGeometry x="60" y="310" width="120" height="40" as="geometry" />
        </mxCell>
        <mxCell id="S_xk8UEMZ3fWhJvyFJjy-6" value="..." style="text;html=1;strokeColor=none;fillColor=none;align=center;verticalAlign=middle;whiteSpace=wrap;rounded=0;fontStyle=0" vertex="1" parent="1">
          <mxGeometry x="90" y="350" width="60" height="30" as="geometry" />
        </mxCell>
        <mxCell id="S_xk8UEMZ3fWhJvyFJjy-9" value="" style="endArrow=none;html=1;rounded=0;dashed=1;strokeColor=#666666;fontStyle=0" edge="1" parent="1">
          <mxGeometry width="50" height="50" relative="1" as="geometry">
            <mxPoint x="40" y="380" as="sourcePoint" />
            <mxPoint x="40" y="140" as="targetPoint" />
          </mxGeometry>
        </mxCell>
        <mxCell id="S_xk8UEMZ3fWhJvyFJjy-10" value="" style="endArrow=none;html=1;rounded=0;dashed=1;fillColor=#f5f5f5;strokeColor=#666666;fontStyle=0" edge="1" parent="1">
          <mxGeometry width="50" height="50" relative="1" as="geometry">
            <mxPoint x="200" y="380" as="sourcePoint" />
            <mxPoint x="200" y="140" as="targetPoint" />
          </mxGeometry>
        </mxCell>
        <mxCell id="S_xk8UEMZ3fWhJvyFJjy-23" value="Contract II" style="rounded=1;whiteSpace=wrap;html=1;fontStyle=1;fillColor=#f5f5f5;fontColor=#333333;strokeColor=#666666;" vertex="1" parent="1">
          <mxGeometry x="220" y="160" width="120" height="40" as="geometry" />
        </mxCell>
        <mxCell id="S_xk8UEMZ3fWhJvyFJjy-24" value="Slave" style="rounded=1;whiteSpace=wrap;html=1;fontStyle=0;dashed=1;dashPattern=1 1;" vertex="1" parent="1">
          <mxGeometry x="220" y="210" width="120" height="40" as="geometry" />
        </mxCell>
        <mxCell id="S_xk8UEMZ3fWhJvyFJjy-25" value="Slave" style="rounded=1;whiteSpace=wrap;html=1;fontStyle=0;dashed=1;dashPattern=1 1;" vertex="1" parent="1">
          <mxGeometry x="220" y="260" width="120" height="40" as="geometry" />
        </mxCell>
        <mxCell id="S_xk8UEMZ3fWhJvyFJjy-26" value="Slave" style="rounded=1;whiteSpace=wrap;html=1;fontStyle=0;dashed=1;dashPattern=1 1;" vertex="1" parent="1">
          <mxGeometry x="220" y="310" width="120" height="40" as="geometry" />
        </mxCell>
        <mxCell id="S_xk8UEMZ3fWhJvyFJjy-27" value="..." style="text;html=1;strokeColor=none;fillColor=none;align=center;verticalAlign=middle;whiteSpace=wrap;rounded=0;fontStyle=0" vertex="1" parent="1">
          <mxGeometry x="250" y="350" width="60" height="30" as="geometry" />
        </mxCell>
        <mxCell id="S_xk8UEMZ3fWhJvyFJjy-28" value="" style="endArrow=none;html=1;rounded=0;dashed=1;strokeColor=#666666;fontStyle=0" edge="1" parent="1">
          <mxGeometry width="50" height="50" relative="1" as="geometry">
            <mxPoint x="360" y="380" as="sourcePoint" />
            <mxPoint x="360" y="140" as="targetPoint" />
          </mxGeometry>
        </mxCell>
        <mxCell id="S_xk8UEMZ3fWhJvyFJjy-29" value="Contract III" style="rounded=1;whiteSpace=wrap;html=1;fontStyle=1;fillColor=#f5f5f5;fontColor=#333333;strokeColor=#666666;" vertex="1" parent="1">
          <mxGeometry x="380" y="160" width="120" height="40" as="geometry" />
        </mxCell>
        <mxCell id="S_xk8UEMZ3fWhJvyFJjy-30" value="Slave" style="rounded=1;whiteSpace=wrap;html=1;fontStyle=0;dashed=1;dashPattern=1 1;" vertex="1" parent="1">
          <mxGeometry x="380" y="210" width="120" height="40" as="geometry" />
        </mxCell>
        <mxCell id="S_xk8UEMZ3fWhJvyFJjy-31" value="&lt;span style=&quot;color: rgb(0, 0, 0); font-family: Helvetica; font-size: 12px; font-style: normal; font-variant-ligatures: normal; font-variant-caps: normal; letter-spacing: normal; orphans: 2; text-align: center; text-indent: 0px; text-transform: none; widows: 2; word-spacing: 0px; -webkit-text-stroke-width: 0px; background-color: rgb(251, 251, 251); text-decoration-thickness: initial; text-decoration-style: initial; text-decoration-color: initial; float: none; display: inline !important;&quot;&gt;Slave&lt;/span&gt;" style="rounded=1;whiteSpace=wrap;html=1;fontStyle=0;dashed=1;dashPattern=1 1;" vertex="1" parent="1">
          <mxGeometry x="380" y="260" width="120" height="40" as="geometry" />
        </mxCell>
        <mxCell id="S_xk8UEMZ3fWhJvyFJjy-32" value="Slave" style="rounded=1;whiteSpace=wrap;html=1;fontStyle=0;dashed=1;dashPattern=1 1;" vertex="1" parent="1">
          <mxGeometry x="380" y="310" width="120" height="40" as="geometry" />
        </mxCell>
        <mxCell id="S_xk8UEMZ3fWhJvyFJjy-33" value="..." style="text;html=1;strokeColor=none;fillColor=none;align=center;verticalAlign=middle;whiteSpace=wrap;rounded=0;fontStyle=0" vertex="1" parent="1">
          <mxGeometry x="410" y="350" width="60" height="30" as="geometry" />
        </mxCell>
        <mxCell id="S_xk8UEMZ3fWhJvyFJjy-34" value="" style="endArrow=none;html=1;rounded=0;dashed=1;strokeColor=#666666;fontStyle=0" edge="1" parent="1">
          <mxGeometry width="50" height="50" relative="1" as="geometry">
            <mxPoint x="520" y="380" as="sourcePoint" />
            <mxPoint x="520" y="140" as="targetPoint" />
          </mxGeometry>
        </mxCell>
      </root>
    </mxGraphModel>
  </diagram>
</mxfile>
